<svg xmlns="http://www.w3.org/2000/svg" aria-hidden="true" style="position:absolute;width:0;height:0;overflow:hidden">
  <defs>
    <symbol id="check-mark" viewBox="0 0 46 32">
      <path fill="#f4f4fd" d="M36.718 1.018C37.469.358 38.469-.007 39.506 0s2.031.386 2.771 1.057 1.17 1.581 1.197 2.538a3.54 3.54 0 0 1-1.05 2.593l-21.28 24.566c-.366.364-.808.656-1.298.858s-1.021.312-1.559.321-1.072-.082-1.571-.268-.952-.462-1.332-.814L1.272 17.825c-.393-.338-.708-.746-.927-1.199s-.336-.942-.346-1.438.089-.988.29-1.448.501-.877.88-1.228.832-.627 1.33-.813 1.032-.277 1.569-.268 1.067.117 1.557.319.932.493 1.298.856L18.091 22.91 36.614 1.125q.05-.057.107-.108h-.005z" style="fill:var(--color1, #f4f4fd)"/>
    </symbol>
    <symbol id="burger-menu" viewBox="0 0 32 32">
      <path d="M4.8 8a1.6 1.6 0 0 1 1.6-1.6h19.2a1.6 1.6 0 0 1 0 3.2H6.4A1.6 1.6 0 0 1 4.8 8M4.8 16a1.6 1.6 0 0 1 1.6-1.6h19.2a1.6 1.6 0 0 1 0 3.2H6.4A1.6 1.6 0 0 1 4.8 16M4.8 24a1.6 1.6 0 0 1 1.6-1.6h19.2a1.6 1.6 0 0 1 0 3.2H6.4A1.6 1.6 0 0 1 4.8 24"/>
    </symbol>
    <symbol id="send" viewBox="0 0 32 32">
      <path fill="#fff" d="m32 2.667-32 15 10.227 3.156L26 8.5 14.002 21.988l.01.003-.012-.003v7.345l5.735-5.576L27 25.999z" style="fill:var(--color2, #fff)"/>
    </symbol>
    <symbol id="email" viewBox="0 0 24 32">
      <path d="M20 8H4c-1.1 0-1.99.9-1.99 2L2 22c0 1.1.9 2 2 2h16c1.1 0 2-.9 2-2V10c0-1.1-.9-2-2-2m-.4 4.25-7.07 4.42c-.32.2-.74.2-1.06 0L4.4 12.25a.85.85 0 1 1 .9-1.44L12 15l6.7-4.19a.85.85 0 1 1 .9 1.44"/>
    </symbol>
    <symbol id="phone" viewBox="0 0 24 32">
      <path d="m18.968 19.153-2.451-.28a1.92 1.92 0 0 0-1.582.55l-1.775 1.775a14.5 14.5 0 0 1-6.359-6.359l1.785-1.785c.415-.415.618-.994.55-1.582l-.28-2.432a1.93 1.93 0 0 0-1.92-1.708H5.267c-1.09 0-1.997.907-1.93 1.997.511 8.24 7.102 14.821 15.332 15.332 1.09.068 1.997-.839 1.997-1.93v-1.669a1.913 1.913 0 0 0-1.698-1.911z"/>
    </symbol>
    <symbol id="person" viewBox="0 0 24 32">
      <path d="M12 16c2.21 0 4-1.79 4-4s-1.79-4-4-4-4 1.79-4 4 1.79 4 4 4m0 2c-2.67 0-8 1.34-8 4v1c0 .55.45 1 1 1h14c.55 0 1-.45 1-1v-1c0-2.66-5.33-4-8-4"/>
    </symbol>
    <symbol id="close" viewBox="0 0 32 32">
      <path d="M32 3.223 28.777 0 16 12.777 3.223 0 0 3.223 12.777 16 0 28.777 3.223 32 16 19.223 28.777 32 32 28.777 19.223 16z"/>
    </symbol>
    <symbol id="instagram" viewBox="0 0 32 32">
      <path fill="#f4f4fd" d="M31.969 9.408c-.075-1.7-.35-2.869-.744-3.882a7.8 7.8 0 0 0-1.85-2.838A7.9 7.9 0 0 0 26.543.844C25.524.45 24.361.175 22.661.1 20.948.019 20.404 0 16.06 0s-4.888.019-6.595.094c-1.7.075-2.869.35-3.882.744a7.8 7.8 0 0 0-2.838 1.85A7.9 7.9 0 0 0 .901 5.52C.507 6.539.232 7.702.157 9.402c-.081 1.713-.1 2.257-.1 6.601s.019 4.888.094 6.595c.075 1.7.35 2.869.744 3.882a7.9 7.9 0 0 0 1.85 2.838 7.9 7.9 0 0 0 2.832 1.844c1.019.394 2.182.669 3.882.744 1.706.075 2.25.094 6.595.094s4.888-.019 6.595-.094c1.7-.075 2.869-.35 3.882-.744a8.18 8.18 0 0 0 4.682-4.682c.394-1.019.669-2.182.744-3.882.075-1.707.094-2.25.094-6.595s-.006-4.888-.081-6.595zm-2.882 13.065c-.069 1.563-.331 2.407-.55 2.969a5.3 5.3 0 0 1-3.038 3.038c-.563.219-1.413.481-2.969.55-1.688.075-2.194.094-6.464.094s-4.782-.019-6.464-.094c-1.563-.069-2.407-.331-2.969-.55a4.9 4.9 0 0 1-1.838-1.194 5 5 0 0 1-1.194-1.838c-.219-.563-.481-1.413-.55-2.969-.075-1.688-.094-2.194-.094-6.464s.019-4.782.094-6.464c.069-1.563.331-2.407.55-2.969a4.9 4.9 0 0 1 1.2-1.838A5 5 0 0 1 6.639 3.55c.563-.219 1.413-.481 2.969-.55 1.688-.075 2.194-.094 6.464-.094 4.276 0 4.782.019 6.464.094 1.563.069 2.407.331 2.969.55a4.9 4.9 0 0 1 1.838 1.194 5 5 0 0 1 1.194 1.838c.219.563.481 1.413.55 2.969.075 1.688.094 2.194.094 6.464s-.019 4.77-.094 6.458" style="fill:var(--color1, #f4f4fd)"/>
      <path fill="#f4f4fd" d="M16.059 7.783c-4.538 0-8.22 3.682-8.22 8.22s3.682 8.22 8.22 8.22 8.22-3.682 8.22-8.22-3.682-8.22-8.22-8.22m0 13.552a5.333 5.333 0 0 1 0-10.664 5.333 5.333 0 0 1 0 10.664M26.524 7.458a1.919 1.919 0 1 1-3.838 0 1.919 1.919 0 0 1 3.838 0" style="fill:var(--color1, #f4f4fd)"/>
    </symbol>
    <symbol id="linkedin" viewBox="0 0 32 32">
      <path fill="#f4f4fd" d="m31.992 32 .008-.001V20.263c0-5.741-1.236-10.164-7.948-10.164-3.227 0-5.392 1.771-6.276 3.449h-.093v-2.913h-6.364v21.364h6.627V21.42c0-2.785.528-5.479 3.977-5.479 3.399 0 3.449 3.179 3.449 5.657v10.401h6.62zM.528 10.636h6.635V32H.528zM3.843 0C1.722 0 0 1.721 0 3.843s1.721 3.879 3.843 3.879 3.843-1.757 3.843-3.879A3.846 3.846 0 0 0 3.843 0" style="fill:var(--color1, #f4f4fd)"/>
    </symbol>
    <symbol id="twitter" viewBox="0 0 32 32">
      <path fill="#f4f4fd" d="M25.2 1.5h4.908l-10.72 12.284L32 30.5h-9.874l-7.734-10.14-8.85 10.14H.632l11.466-13.14L0 1.5h10.126l6.99 9.266zm-1.72 26.056h2.72L8.646 4.29H5.73z" style="fill:var(--color1, #f4f4fd)"/>
    </symbol>
    <symbol id="facebook" viewBox="0 0 32 32">
      <path fill="#f4f4fd" d="M21.33 5.313h2.921V.225C23.747.156 22.014 0 19.995 0c-4.212 0-7.097 2.649-7.097 7.519V12H8.25v5.688h4.648V32h5.699V17.689h4.46l.708-5.688h-5.169V8.082c.001-1.644.444-2.769 2.735-2.769z" style="fill:var(--color1, #f4f4fd)"/>
    </symbol>
    <symbol id="astronaut" viewBox="0 0 33 32">
      <path fill="#4d5ae5" d="M31.512 4.196a.49.49 0 0 0-.399-.336l-1.772-.258-.793-1.606c-.166-.338-.721-.338-.887 0l-.793 1.606-1.772.258a.494.494 0 0 0-.275.843l1.283 1.25-.303 1.765a.5.5 0 0 0 .196.484.49.49 0 0 0 .521.038l1.585-.834 1.585.834a.5.5 0 0 0 .522-.037.49.49 0 0 0 .196-.484l-.303-1.765 1.283-1.25a.5.5 0 0 0 .125-.507zm-2.284 1.231a.5.5 0 0 0-.142.438l.177 1.033-.928-.488a.5.5 0 0 0-.462 0l-.928.488.177-1.033a.5.5 0 0 0-.142-.438l-.751-.732 1.038-.151a.5.5 0 0 0 .373-.271l.464-.94.464.94a.5.5 0 0 0 .373.271l1.038.151zM26.095 19.035h-.989v.989h.989zM26.095 21.014h-.989v.989h.989zM27.084 20.024h-.989v.989h.989zM25.105 20.024h-.989v.989h.989zM22.632 24.477h-.989v.989h.989zM22.632 26.455h-.989v.989h.989z" style="fill:var(--color2, #4d5ae5)"/>
      <path fill="#4d5ae5" d="M23.621 25.466h-.989v.989h.989zM21.643 25.466h-.989v.989h.989zM16.696 22.498h-.989v.989h.989zM16.696 24.477h-.989v.989h.989z" style="fill:var(--color2, #4d5ae5)"/>
      <path fill="#4d5ae5" d="M17.685 23.487h-.989v.989h.989zM15.706 23.487h-.989v.989h.989zM7.296 5.678h-.989v.989h.989zM7.296 7.657h-.989v.989h.989zM8.286 6.668h-.989v.989h.989zM6.307 6.668h-.989v.989h.989z" style="fill:var(--color2, #4d5ae5)"/>
      <path fill="#2e2f42" d="M24.779 13.133a1.64 1.64 0 0 0-1.102-.653 1.65 1.65 0 0 0-1.243.326l-1.162.89-1.76 1.314-1.259-.502c2.246-1.008 3.816-3.254 3.816-5.862 0-3.546-2.896-6.431-6.457-6.431S9.155 5.1 9.155 8.646c0 1.285.384 2.48 1.039 3.486L7.63 12.11h-.004c-.008 0-.014.004-.022.004a.5.5 0 0 0-.144.029l-.036.012-.018.006-2.999 1.481h-.001l-1.756.845a.3.3 0 0 0-.058.033 1.652 1.652 0 0 0 .424 2.954q.248.077.5.077c.269 0 .535-.066.779-.196l1.287-.685 2.1-1.084 1.259-.007-5.047 5.023-.002.001L2.65 21.84c-.293.292-.455.679-.455 1.092s.161.801.455 1.093c.301.3.698.45 1.094.45s.792-.15 1.095-.45l1.219-1.214 1.615-1.206.836.832-1.634 1.627-.002.001-1.242 1.237c-.293.292-.455.679-.455 1.092s.161.801.455 1.093c.301.3.698.45 1.094.45s.793-.15 1.095-.45l3.229-3.215.001-.001.936-.928-.003-.003q.01-.007.02-.014l4.792-5.248 3.219.458a.475.475 0 0 0 .244-.031q.024-.01.046-.022c.018-.009.037-.014.053-.025l2.98-1.979c.011-.007.017-.019.027-.027.012-.009.027-.013.038-.024l1.179-1.105a1.65 1.65 0 0 0 .197-2.191zM3.831 16.482a.66.66 0 0 1-.518.048.663.663 0 0 1-.197-1.169l1.218-.586.417 1.217-.92.489zm3.244-1.695-1.436.742-.407-1.19 1.88-.928zM21.08 8.646c0 .852-.203 1.655-.556 2.374l-3.878-1.762a1.73 1.73 0 0 0-.731-1.287l1.358-4.508c2.205.702 3.807 2.759 3.807 5.183m-10.935 0c0-3 2.453-5.442 5.467-5.442.235 0 .464.02.691.048l-1.328 4.409q-.026-.003-.053-.005c-.958 0-1.737.777-1.737 1.731s.779 1.731 1.737 1.731c.644 0 1.201-.356 1.501-.876l3.583 1.628a5.46 5.46 0 0 1-4.393 2.217c-3.015 0-5.467-2.441-5.467-5.442zm5.525.743c0 .409-.335.742-.748.742s-.748-.333-.748-.742.335-.742.748-.742.748.333.748.742M4.141 23.324a.563.563 0 0 1-.792 0 .55.55 0 0 1 0-.783l.892-.889.79.786-.889.885zm2.981 3.463a.563.563 0 0 1-.793 0 .55.55 0 0 1 0-.783l.893-.889.79.786zm3.23-3.218-.002.001-1.637 1.632-.79-.786 1.635-1.628.002-.001c.037-.037.06-.082.083-.126.006-.013.019-.024.024-.037.015-.038.018-.079.024-.119.003-.023.013-.044.013-.067 0-.033-.012-.065-.019-.098-.006-.03-.006-.06-.017-.088a.5.5 0 0 0-.085-.128c-.009-.011-.013-.025-.023-.035h-.001l-.001-.002-1.491-1.484c-.016-.016-.036-.022-.054-.036a.4.4 0 0 0-.081-.053.5.5 0 0 0-.087-.03.4.4 0 0 0-.096-.018.5.5 0 0 0-.089.005.5.5 0 0 0-.096.019.4.4 0 0 0-.088.042c-.018.01-.039.014-.056.027l-1.645 1.228-.836-.832 2.225-2.213 4.045 3.978-.86.852zm6.324-6.508c-.014-.002-.028.003-.042.003a.48.48 0 0 0-.356.127c-.012.01-.026.015-.037.027l-4.358 4.773-4.014-3.948 2.628-2.614a.496.496 0 0 0-.353-.845l-2.058.012.026-1.491 2.879.025a6.45 6.45 0 0 0 4.62 1.949c.406 0 .801-.042 1.187-.114a.5.5 0 0 0 .12.079l2.235.89.307 1.525-2.785-.396zm3.749.165-.29-1.445 1.342-1.002.878 1.165-1.929 1.281zm3.481-2.625-.777.728-.864-1.147.771-.591a.68.68 0 0 1 .504-.133.666.666 0 0 1 .366 1.143" style="fill:var(--color3, #2e2f42)"/>
      <path fill="#2e2f42" d="m14.471 17.2-1.988-1.979a.495.495 0 0 0-.698 0L9.798 17.2a.496.496 0 0 0 0 .702l1.987 1.979a.493.493 0 0 0 .698 0l1.988-1.979a.497.497 0 0 0 0-.702m-2.336 1.632-1.286-1.281 1.286-1.281 1.287 1.281zM17.776 4.703l-.239.961c.066.016 1.612.419 1.612 1.993h.989c0-1.871-1.545-2.751-2.362-2.954M20.138 8.646h-.989v.989h.989z" style="fill:var(--color3, #2e2f42)"/>
    </symbol>
    <symbol id="diagram" viewBox="0 0 32 32">
      <path fill="#4d5ae5" d="M14.925 14.965h1.066v4.798h-1.066zM19.19 17.097h1.066v2.665H19.19zM10.661 18.696h1.066v1.066h-1.066zM7.463 18.163h1.066v1.599H7.463z" style="fill:var(--color2, #4d5ae5)"/>
      <path fill="#2e2f42" d="M1.599 28.291h25.587a1.6 1.6 0 0 0 1.599-1.599V24.56a1.6 1.6 0 0 0-1.599-1.599h-.533V9.668L29.681 6.8a1.608 1.608 0 1 0-.746-.763L26.654 8.2V6.97a1.6 1.6 0 0 0-1.599-1.599H3.733A1.6 1.6 0 0 0 2.134 6.97v15.992h-.533a1.6 1.6 0 0 0-1.599 1.599v2.132a1.6 1.6 0 0 0 1.599 1.599zM30.384 4.837a.533.533 0 1 1 0 1.067.533.533 0 0 1 0-1.067M3.198 6.969c0-.294.239-.533.533-.533h21.322c.294 0 .533.239.533.533v2.239l-1.066 1.013V8.035a.533.533 0 0 0-.533-.533H4.797a.533.533 0 0 0-.533.533v13.326c0 .294.239.533.533.533h19.19a.533.533 0 0 0 .533-.533v-9.674l1.066-1.01v12.284H3.198zm4.798 6.93a1.598 1.598 0 1 0 1.107 2.749l1.853.93a.53.53 0 0 0 .636-.123l3.939-4.431 3.872 2.901a.53.53 0 0 0 .686-.039l3.365-3.188v8.131H5.33V8.569h18.124v2.66l-3.771 3.572-3.904-2.927a.533.533 0 0 0-.718.072l-3.993 4.493-1.493-.746q.017-.096.02-.193a1.6 1.6 0 0 0-1.599-1.599zm.533 1.599a.533.533 0 1 1-1.067 0 .533.533 0 0 1 1.067 0m3.198 8.529h5.331v.533a.533.533 0 0 1-.533.533h-4.264a.533.533 0 0 1-.533-.533zm-10.661.533c0-.294.239-.533.533-.533h9.062v.533a1.6 1.6 0 0 0 1.599 1.599h4.264a1.6 1.6 0 0 0 1.599-1.599v-.533h9.062c.294 0 .533.239.533.533v2.132a.533.533 0 0 1-.533.533H1.598a.533.533 0 0 1-.533-.533z" style="fill:var(--color3, #2e2f42)"/>
    </symbol>
    <symbol id="clock" viewBox="0 0 32 32">
      <path fill="#2e2f42" d="M31.297 15.301C31.295 6.849 24.442-.002 15.989 0S.686 6.855.688 15.308a15.3 15.3 0 0 0 10.649 14.576.662.662 0 0 0 .529-.065.64.64 0 0 0 .283-.356l3.865-12.25a1.912 1.912 0 1 0-.84-3.635l-5.106-5.107a.637.637 0 0 0-.902.902l5.103 5.109a1.876 1.876 0 0 0 .536 2.309l-3.683 11.673C3.844 25.783.118 17.71 2.799 10.432S13.553-.572 20.831 2.109s11.004 10.754 8.323 18.032a14.04 14.04 0 0 1-7.462 7.973l-.398-1.874a.637.637 0 0 0-1.048-.344l-3.837 3.426a.637.637 0 0 0 .231 1.084l4.899 1.564a.638.638 0 0 0 .819-.74l-.391-1.839a15.255 15.255 0 0 0 9.329-14.089zm-15.305-.637a.638.638 0 1 1 0 1.277.638.638 0 0 1 0-1.277m2.101 14.864 2.184-1.948.603 2.84z" style="fill:var(--color3, #2e2f42)"/>
      <path fill="#4d5ae5" d="M15.354 3.185V4.46a.638.638 0 1 0 1.276 0V3.185a.638.638 0 0 0-1.276 0M3.876 14.664a.638.638 0 0 0 0 1.276h1.275a.638.638 0 1 0 0-1.276zM28.108 15.939a.638.638 0 1 0 0-1.276h-1.275a.638.638 0 0 0 0 1.276z" style="fill:var(--color2, #4d5ae5)"/>
    </symbol>
    <symbol id="antena" viewBox="0 0 32 32">
      <path fill="#2e2f42" d="m30.773 22.098-8.443-8.505.937-4.615c.242.094.499.144.758.146h.006a2.159 2.159 0 1 0-2.008-1.435l-4.96.605L8.972.161a.53.53 0 0 0-.377-.16.53.53 0 0 0-.373.155L6.709 1.66a.534.534 0 0 0 0 .754l.814.826a14.94 14.94 0 0 0 2.519 17.663.5.5 0 0 0 .146.098q-.05.271-.052.547v6.187h-6.4a2.67 2.67 0 0 0-2.667 2.667v1.067c0 .295.239.533.533.533h24.533a.533.533 0 0 0 .533-.533v-1.067a2.67 2.67 0 0 0-2.667-2.667h-6.4v-2.742a15 15 0 0 0 3.049.32 14.85 14.85 0 0 0 7.04-1.783l.818.823a.53.53 0 0 0 .377.16.53.53 0 0 0 .373-.155l1.513-1.504a.534.534 0 0 0 0-.754zM23.28 6.233a1.067 1.067 0 1 1 .753 1.822h-.003a1.067 1.067 0 0 1-.747-1.823h-.002zm-1.256 3.505-.598 2.946-1.175-1.182 1.774-1.763zm-.605-.902-1.92 1.909-1.485-1.493 3.405-.415zM24.004 28.8a1.6 1.6 0 0 1 1.6 1.6v.533H2.137V30.4a1.6 1.6 0 0 1 1.6-1.6zm-7.467-2.133v1.067h-5.333v-1.067zM11.204 25.6v-4.053c0-1.294 1.196-2.347 2.667-2.347s2.667 1.053 2.667 2.347V25.6zm6.4-1.696v-2.357c0-1.882-1.675-3.413-3.733-3.413a3.8 3.8 0 0 0-3.281 1.786A13.87 13.87 0 0 1 8.311 4.033l18.602 18.708a13.82 13.82 0 0 1-9.309 1.163m11.289-.684L7.836 2.039l.755-.752 7.935 7.98c.004 0 .006.007.01.01l13.115 13.191-.757.752z" style="fill:var(--color3, #2e2f42)"/>
      <path fill="#4d5ae5" d="M13.876 20.267h-.005a1.6 1.6 0 1 0-.004 3.2h.005a1.6 1.6 0 1 0 .004-3.2m.373 1.978a.534.534 0 0 1-.752-.756.53.53 0 0 1 .373-.155.534.534 0 0 1 .374.911z" style="fill:var(--color2, #4d5ae5)"/>
    </symbol>
  </defs>
</svg>
